<svg xmlns="http://www.w3.org/2000/svg" width="275" height="187" viewBox="0 0 275 187" fill="none"> <path fill-rule="evenodd" clip-rule="evenodd" d="M133.958 36.6985L92.1742 0.697963C90.9629 -0.344399 89.1297 -0.203163 88.081 1.01402L0.707512 102.423C-0.340555 103.64 -0.209122 105.474 1.00154 106.517L93.0973 185.866C94.308 186.909 96.1413 186.768 97.19 185.551L133.958 142.876V107.401L130.932 110.912L122.161 103.355L133.958 89.6634V36.6985ZM92.9432 155.004L115.736 128.55L106.965 120.993L84.1719 147.447L92.9432 155.004ZM66.6301 132.333L89.423 105.879L80.6517 98.3215L57.8588 124.776L66.6301 132.333ZM40.317 109.662L63.1099 83.2076L54.3394 75.651L31.5465 102.105L40.317 109.662ZM104.619 88.2413L127.412 61.7868L118.641 54.2296L95.8481 80.684L104.619 88.2413ZM78.3063 65.5701L101.099 39.1157L92.3287 31.5591L69.5358 58.0135L78.3063 65.5701Z" fill="#F1B813"></path> <path d="M192.467 73.344H151.354V58.9885C151.354 49.939 150.963 44.275 150.182 41.9963C149.4 39.7177 147.545 38.5784 144.615 38.5784C142.076 38.5784 140.351 39.5549 139.439 41.5081C138.528 43.4612 138.072 48.4742 138.072 56.5471V132.426C138.072 139.522 138.528 144.21 139.439 146.489C140.351 148.702 142.174 149.809 144.908 149.809C147.903 149.809 149.921 148.539 150.963 146C152.07 143.461 152.623 138.513 152.623 131.156V112.406H144.322V88.3831H192.467V173.246H166.588L162.779 161.918C159.98 166.801 156.432 170.479 152.135 172.953C147.903 175.362 142.89 176.567 137.096 176.567C130.195 176.567 123.717 174.906 117.662 171.586C111.673 168.201 107.115 164.034 103.99 159.086C100.865 154.138 98.9121 148.962 98.1309 143.559C97.3496 138.09 96.959 129.92 96.959 119.047V72.0745C96.959 56.9703 97.7728 46.0002 99.4004 39.1643C101.028 32.3284 105.683 26.0784 113.365 20.4143C121.113 14.6851 131.106 11.8206 143.346 11.8206C155.39 11.8206 165.383 14.2945 173.326 19.2424C181.269 24.1903 186.445 30.0823 188.854 36.9182C191.262 43.689 192.467 53.5523 192.467 66.5081V73.344Z" fill="#313131"></path> <path d="M204.482 15.1409H274.111V46.7815H245.596V76.762H270.986V106.84H245.596V173.246H204.482V15.1409Z" fill="#313131"></path> </svg> 